PathFileType	4	(X/Y/Z)	OpenSim_Sub07_EMGBaseline_Magnet.trc
DataRate	CameraRate	NumFrames	NumMarkers	Units	OrigDataRate	OrigDataStartFrame	OrigNumFrames
100	100	33	8	m	100	1708	6828
Frame#	Time	torso_imu_offset_imu	pelvis_imu_offset_imu	tibia_r_imu_offset_imu	femur_r_imu_offset_imu	tibia_l_imu_offset_imu	femur_l_imu_offset_imu	toes_r_imu_offset_imu	toes_l_imu_offset_imu
				X1	Y1	Z1	X2	Y2	Z2	X3	Y3	Z3	X4	Y4	Z4	X5	Y5	Z5	X6	Y6	Z6	X7	Y7	Z7	X8		Y8	Z8	

1708	17.07000000	0.93139600	0.15747100	0.09155300	-0.71118200	0.12597700	-0.62377900	-0.50585900	-0.64770500	0.13183600	-0.69677700	-0.49536100	-0.07080100	-0.70605500	0.40161100	0.05273400	-0.79638700	0.03247100	0.28662100	-0.63427700	-0.36547900	-0.38964800	-0.66308600	-0.19287100	-0.44189500
1709	17.08000000	0.93139600	0.15112300	0.09399400	-0.70703100	0.13012700	-0.61914100	-0.49536100	-0.64990200	0.13842800	-0.68627900	-0.49926800	-0.06616200	-0.71899400	0.38818400	0.06469700	-0.79907200	0.04101600	0.28881800	-0.63842800	-0.36767600	-0.39379900	-0.64477500	-0.20581100	-0.45971700
1710	17.09000000	0.93139600	0.15112300	0.09399400	-0.70678700	0.12793000	-0.62158200	-0.49292000	-0.66015600	0.13208000	-0.68627900	-0.50341800	-0.07055700	-0.72729500	0.36401400	0.07275400	-0.79028300	0.04345700	0.29760700	-0.64233400	-0.36962900	-0.40429700	-0.63525400	-0.21899400	-0.47094700
1711	17.10000000	0.93115200	0.15747100	0.09594700	-0.70434600	0.11743200	-0.62109400	-0.48022500	-0.66015600	0.13452100	-0.68603500	-0.50561500	-0.06811500	-0.72900400	0.35083000	0.08227500	-0.79248000	0.04760700	0.29760700	-0.64843800	-0.37793000	-0.40625000	-0.61889600	-0.23632800	-0.47973600
1712	17.11000000	0.93554700	0.15551800	0.09179700	-0.70898400	0.12793000	-0.61694300	-0.47583000	-0.66870100	0.13696300	-0.68823200	-0.50756800	-0.07495100	-0.73315400	0.33764600	0.08081100	-0.79272500	0.04980500	0.29541000	-0.66088900	-0.38012700	-0.41235400	-0.61621100	-0.24731400	-0.48877000
1713	17.12000000	0.93335000	0.15747100	0.08935500	-0.70678700	0.12793000	-0.61914100	-0.46508800	-0.67700200	0.13940400	-0.68603500	-0.50976600	-0.07714800	-0.73730500	0.33325200	0.08105500	-0.78808600	0.04785200	0.29980500	-0.66284200	-0.38208000	-0.41870100	-0.60473600	-0.25610400	-0.49536100
1714	17.13000000	0.92919900	0.15747100	0.09155300	-0.70678700	0.12597700	-0.61669900	-0.45654300	-0.68115200	0.13525400	-0.67773400	-0.50756800	-0.08178700	-0.73950200	0.32885700	0.08593800	-0.78808600	0.04345700	0.30224600	-0.67529300	-0.38842800	-0.41455100	-0.59594700	-0.25146500	-0.49780300
1715	17.14000000	0.93139600	0.15332000	0.08960000	-0.71728500	0.12158200	-0.61669900	-0.44165000	-0.69360400	0.13574200	-0.67529300	-0.51586900	-0.07910200	-0.74169900	0.32446300	0.09277300	-0.78588900	0.04785200	0.31103500	-0.68139600	-0.39453100	-0.42260700	-0.59350600	-0.25366200	-0.50659200
1716	17.15000000	0.92504900	0.15332000	0.09179700	-0.70483400	0.13012700	-0.61450200	-0.43725600	-0.69775400	0.13354500	-0.67749000	-0.51171900	-0.08398400	-0.74169900	0.32446300	0.09277300	-0.78588900	0.04565400	0.30883800	-0.68530300	-0.40087900	-0.41650400	-0.60034200	-0.25146500	-0.50000000
1717	17.16000000	0.92675800	0.16162100	0.08252000	-0.70483400	0.13012700	-0.61694300	-0.43286100	-0.70410200	0.14038100	-0.67724600	-0.51782200	-0.08593800	-0.73291000	0.33105500	0.09228500	-0.78173800	0.05224600	0.30883800	-0.70410200	-0.39917000	-0.41650400	-0.61035200	-0.22753900	-0.49560500
1718	17.17000000	0.92675800	0.16162100	0.08691400	-0.70703100	0.13208000	-0.61694300	-0.41577100	-0.71020500	0.13183600	-0.67529300	-0.51367200	-0.10205100	-0.73535200	0.33984400	0.09423800	-0.77734400	0.05224600	0.32446300	-0.71020500	-0.40112300	-0.41235400	-0.62841800	-0.22119100	-0.48217800
1719	17.18000000	0.92456100	0.16381800	0.08471700	-0.70898400	0.12573200	-0.61206100	-0.40942400	-0.71435500	0.13183600	-0.67553700	-0.50952100	-0.10009800	-0.72656200	0.34863300	0.08911100	-0.77978500	0.06079100	0.32446300	-0.71875000	-0.39941400	-0.40625000	-0.63549800	-0.21240200	-0.47778300
1720	17.19000000	0.92895500	0.16601600	0.08471700	-0.70898400	0.13012700	-0.61694300	-0.39062500	-0.71655300	0.12988300	-0.67334000	-0.50952100	-0.11840800	-0.72241200	0.35742200	0.09545900	-0.77978500	0.06079100	0.33105500	-0.73315400	-0.39965800	-0.40625000	-0.64477500	-0.20361300	-0.46191400
1721	17.20000000	0.93115200	0.16381800	0.08471700	-0.71142600	0.13647500	-0.62182600	-0.38403300	-0.72680700	0.13012700	-0.67309600	-0.51367200	-0.12036100	-0.72534200	0.37719700	0.09668000	-0.76879900	0.06323200	0.34008800	-0.74389600	-0.39160200	-0.40014600	-0.66088900	-0.19287100	-0.44409200
1722	17.21000000	0.93115200	0.16381800	0.08032200	-0.71142600	0.13623000	-0.60791000	-0.37744100	-0.73535200	0.13501000	-0.67334000	-0.51147500	-0.11816400	-0.71826200	0.37280300	0.11254900	-0.76464800	0.06982400	0.34448200	-0.75219700	-0.38964800	-0.38354500	-0.66992200	-0.19091800	-0.43066400
1723	17.22000000	0.93090800	0.16601600	0.08032200	-0.71118200	0.12988300	-0.60302700	-0.35839800	-0.74145500	0.13525400	-0.67553700	-0.50732400	-0.12524400	-0.71191400	0.38598600	0.12060500	-0.76684600	0.06762700	0.35131800	-0.76489300	-0.38378900	-0.36914100	-0.68798800	-0.18676800	-0.41040000
1724	17.23000000	0.93115200	0.16601600	0.07373000	-0.71142600	0.13427700	-0.60083000	-0.34545900	-0.74975600	0.13330100	-0.67968800	-0.50732400	-0.13671900	-0.70752000	0.38378900	0.11621100	-0.75805700	0.06762700	0.36254900	-0.77563500	-0.37402300	-0.36108400	-0.69702100	-0.18261700	-0.38354500
1725	17.24000000	0.92651400	0.17016600	0.07128900	-0.71557600	0.13208000	-0.60302700	-0.33715800	-0.75390600	0.13110400	-0.67968800	-0.50537100	-0.13916000	-0.70312500	0.38818400	0.12719700	-0.75561500	0.06103500	0.36694300	-0.78613300	-0.37011700	-0.34448200	-0.70141600	-0.18481400	-0.39038100
1726	17.25000000	0.93310500	0.16601600	0.06933600	-0.71777300	0.13403300	-0.60546900	-0.31787100	-0.76440400	0.12475600	-0.68188500	-0.50122100	-0.14379900	-0.70092800	0.39257800	0.12475600	-0.75756800	0.05468800	0.37158200	-0.80102500	-0.36010700	-0.32397500	-0.69702100	-0.18261700	-0.39038100
1727	17.26000000	0.93310500	0.17236300	0.06469700	-0.71997100	0.12988300	-0.59594700	-0.30737300	-0.76855500	0.12939500	-0.68603500	-0.49926800	-0.13940400	-0.69677700	0.40356400	0.12402300	-0.75488300	0.04370100	0.37402300	-0.81396500	-0.34838900	-0.30127000	-0.70166000	-0.17822300	-0.39257800
1728	17.27000000	0.92871100	0.17016600	0.07128900	-0.72436500	0.13403300	-0.59838900	-0.29443400	-0.77465800	0.12085000	-0.68432600	-0.48877000	-0.14428700	-0.69506800	0.41674800	0.12793000	-0.75708000	0.04150400	0.36962900	-0.82031200	-0.34228500	-0.27856400	-0.70385700	-0.17822300	-0.39038100
1729	17.28000000	0.93090800	0.17236300	0.06250000	-0.72216800	0.12988300	-0.59375000	-0.27343800	-0.78320300	0.13232400	-0.69067400	-0.48461900	-0.14672900	-0.68212900	0.43212900	0.12915000	-0.75708000	0.04150400	0.36499000	-0.83325200	-0.33056600	-0.24755900	-0.70629900	-0.17602500	-0.38354500
1730	17.29000000	0.92871100	0.17236300	0.06469700	-0.72631800	0.13183600	-0.58911100	-0.25439500	-0.78710900	0.12353500	-0.69506800	-0.48046900	-0.15380900	-0.67968800	0.43212900	0.13818400	-0.75952100	0.04589800	0.36718800	-0.84375000	-0.32470700	-0.21850600	-0.71044900	-0.18481400	-0.38574200
1731	17.30000000	0.93090800	0.17016600	0.06030300	-0.72216800	0.13183600	-0.59130900	-0.24169900	-0.78930700	0.12573200	-0.69506800	-0.47851600	-0.15161100	-0.66894500	0.44287100	0.15307600	-0.75756800	0.05688500	0.36938500	-0.85058600	-0.30859400	-0.18335000	-0.70825200	-0.17822300	-0.38818400
1732	17.31000000	0.93286100	0.17871100	0.06225600	-0.73266600	0.12768600	-0.59130900	-0.21875000	-0.79345700	0.12377900	-0.70581100	-0.46606400	-0.14746100	-0.66455100	0.44946300	0.15722700	-0.75366200	0.06982400	0.36914100	-0.86352500	-0.29272500	-0.14624000	-0.70605500	-0.18042000	-0.38574200
1733	17.32000000	0.92651400	0.17651400	0.05566400	-0.72412100	0.12988300	-0.58422900	-0.19555700	-0.79956100	0.11743200	-0.71435500	-0.46215800	-0.15234400	-0.65991200	0.44726600	0.16626000	-0.74755900	0.08935500	0.38256800	-0.87011700	-0.28271500	-0.10278300	-0.71484400	-0.18261700	-0.39257800
1734	17.33000000	0.93286100	0.17456100	0.05786100	-0.73071300	0.12963900	-0.58422900	-0.17846700	-0.80371100	0.11523400	-0.71679700	-0.44970700	-0.14819300	-0.65795900	0.44946300	0.15942400	-0.74560500	0.09594700	0.37793000	-0.87036100	-0.27490200	-0.06127900	-0.71289100	-0.17822300	-0.38574200
1735	17.34000000	0.93286100	0.17456100	0.04907200	-0.72851600	0.12963900	-0.58422900	-0.15722700	-0.81420900	0.11572300	-0.72558600	-0.43530300	-0.14868200	-0.65600600	0.46044900	0.16552700	-0.73559600	0.12207000	0.39111300	-0.88110400	-0.26904300	-0.01757800	-0.71704100	-0.18261700	-0.39038100
1736	17.35000000	0.92651400	0.17871100	0.04443400	-0.72460900	0.13818400	-0.58471700	-0.13647500	-0.81616200	0.11352500	-0.73437500	-0.42285200	-0.15380900	-0.65161100	0.46728500	0.15844700	-0.73388700	0.13745100	0.38427700	-0.87939500	-0.25708000	0.03222700	-0.71728500	-0.18042000	-0.38818400
1737	17.36000000	0.93286100	0.17651400	0.04907200	-0.72876000	0.13818400	-0.58471700	-0.11523400	-0.82446300	0.10717800	-0.73877000	-0.41259800	-0.15649400	-0.64965800	0.47607400	0.15576200	-0.73632800	0.14819300	0.39086900	-0.87133800	-0.24902300	0.08422900	-0.72168000	-0.18286100	-0.38354500
1738	17.37000000	0.93286100	0.17651400	0.04687500	-0.73291000	0.13378900	-0.57763700	-0.09033200	-0.82031200	0.10253900	-0.74755900	-0.40429700	-0.15234400	-0.64526400	0.47802700	0.16455100	-0.73193400	0.14819300	0.39746100	-0.86914100	-0.25122100	0.12793000	-0.71484400	-0.18481400	-0.38134800
1739	17.38000000	0.92846700	0.18286100	0.04443400	-0.73095700	0.14233400	-0.58252000	-0.07128900	-0.82446300	0.11621100	-0.75854500	-0.38793900	-0.15063500	-0.64306600	0.47802700	0.16674800	-0.73022500	0.15918000	0.39746100	-0.85473600	-0.25341800	0.17602500	-0.72168000	-0.18286100	-0.38574200
1740	17.39000000	0.92846700	0.18090800	0.04223600	-0.73535200	0.14233400	-0.58252000	-0.05053700	-0.82446300	0.10498000	-0.76123000	-0.36499000	-0.14917000	-0.63867200	0.48242200	0.17309600	-0.72363300	0.16137700	0.40185500	-0.84228500	-0.25341800	0.21972700	-0.72583000	-0.18725600	-0.37451200
